<svg height="480pt" viewBox="0 -100 480 480" width="480pt" xmlns="http://www.w3.org/2000/svg"><path d="m424 168h-368c-30.929688 0-56 25.070312-56 56s25.070312 56 56 56h368c30.929688 0 56-25.070312 56-56s-25.070312-56-56-56zm0 96h-368c-22.089844 0-40-17.910156-40-40s17.910156-40 40-40h368c22.089844 0 40 17.910156 40 40s-17.910156 40-40 40zm0 0"/><path d="m240 192c-17.671875 0-32 14.328125-32 32s14.328125 32 32 32 32-14.328125 32-32-14.328125-32-32-32zm0 48c-8.835938 0-16-7.164062-16-16s7.164062-16 16-16 16 7.164062 16 16-7.164062 16-16 16zm0 0"/><path d="m160 192c-17.671875 0-32 14.328125-32 32s14.328125 32 32 32 32-14.328125 32-32-14.328125-32-32-32zm0 48c-8.835938 0-16-7.164062-16-16s7.164062-16 16-16 16 7.164062 16 16-7.164062 16-16 16zm0 0"/><path d="m80 192c-17.671875 0-32 14.328125-32 32s14.328125 32 32 32 32-14.328125 32-32-14.328125-32-32-32zm0 48c-8.835938 0-16-7.164062-16-16s7.164062-16 16-16 16 7.164062 16 16-7.164062 16-16 16zm0 0"/><path d="m320 192c-17.671875 0-32 14.328125-32 32s14.328125 32 32 32 32-14.328125 32-32-14.328125-32-32-32zm0 48c-8.835938 0-16-7.164062-16-16s7.164062-16 16-16 16 7.164062 16 16-7.164062 16-16 16zm0 0"/><path d="m400 192c-17.671875 0-32 14.328125-32 32s14.328125 32 32 32 32-14.328125 32-32-14.328125-32-32-32zm0 48c-8.835938 0-16-7.164062-16-16s7.164062-16 16-16 16 7.164062 16 16-7.164062 16-16 16zm0 0"/><path d="m64 160h160c4.417969 0 8-3.582031 8-8v-144c0-4.417969-3.582031-8-8-8h-160c-4.417969 0-8 3.582031-8 8v144c0 4.417969 3.582031 8 8 8zm8-16v-16h144v16zm88-128v32h-32v-32zm-48 0v40c0 4.417969 3.582031 8 8 8h48c4.417969 0 8-3.582031 8-8v-40h40v96h-144v-96zm0 0"/><path d="m256 160h160c4.417969 0 8-3.582031 8-8v-144c0-4.417969-3.582031-8-8-8h-160c-4.417969 0-8 3.582031-8 8v144c0 4.417969 3.582031 8 8 8zm8-16v-16h144v16zm88-128v32h-32v-32zm-48 0v40c0 4.417969 3.582031 8 8 8h48c4.417969 0 8-3.582031 8-8v-40h40v96h-144v-96zm0 0"/></svg>