<?xml version="1.0"?>
<svg xmlns="http://www.w3.org/2000/svg" width="512" height="512" viewBox="0 0 512 512"><g><path d="M380.16,41.16a8,8,0,0,0-7.84-.26L158.05,152H44a28.031,28.031,0,0,0-28,28V332a28.031,28.031,0,0,0,28,28H158.05L372.32,471.1a7.97,7.97,0,0,0,3.68.9,7.985,7.985,0,0,0,8-8V48A8.034,8.034,0,0,0,380.16,41.16ZM152,344H44a12.01,12.01,0,0,1-12-12V180a12.01,12.01,0,0,1,12-12H152ZM368,450.84,168,347.14V164.86L368,61.16Z"/><path d="M440,256c0-25.763-9.966-50.08-26.659-65.051a8,8,0,0,0-10.682,11.912C416.021,214.846,424,234.71,424,256s-7.979,41.154-21.341,53.139a8,8,0,0,0,10.682,11.912C430.034,306.08,440,281.763,440,256Z"/><path d="M472.242,165.1c-15.255-25.9-37.054-45.3-61.383-54.608a8,8,0,0,0-5.718,14.944c20.958,8.019,39.891,24.989,53.314,47.783C472.55,197.152,480,225.777,480,256c0,56.318-27.139,107.5-67.53,127.366a8,8,0,1,0,7.06,14.358c22.445-11.037,41.561-30.18,55.282-55.359C488.674,316.932,496,287.066,496,256,496,222.925,487.785,191.491,472.242,165.1Z"/></g></svg>
