<?xml version="1.0" encoding="iso-8859-1"?>
<!-- Generator: Adobe Illustrator 19.0.0, SVG Export Plug-In . SVG Version: 6.00 Build 0)  -->
<svg version="1.1" id="Capa_1" xmlns="http://www.w3.org/2000/svg" xmlns:xlink="http://www.w3.org/1999/xlink" x="0px" y="0px"
	 viewBox="0 0 480 480" style="enable-background:new 0 0 480 480;" xml:space="preserve">
<g>
	<g>
		<path d="M416,236v-32h-48v16h-32v16h-24v-72h-40v-16h24v-32h64c4.418,0,8-3.582,8-8V92c0-13.255-10.745-24-24-24H136
			c-13.255,0-24,10.745-24,24v16c0,4.418,3.582,8,8,8h64v32h24v16h-40v72h-24v-16h-32v-16H64v32H0v144h64v32h48v-16h32v-16h192v16
			h32v16h48v-32h64V236H416z M64,364H16V252h48V364z M96,396H80V220h16V396z M128,380h-16V236h16V380z M128,100v-8
			c0-4.418,3.582-8,8-8h208c4.418,0,8,3.582,8,8v8H128z M200,132v-16h80v16H200z M256,148v16h-32v-16H256z M184,180h112v16H184V180z
			 M336,364H144V252h32c4.418,0,8-3.582,8-8v-32h112v32c0,4.418,3.582,8,8,8h32V364z M368,380h-16V236h16V380z M400,396h-16V220h16
			V396z M464,364h-48V252h48V364z"/>
	</g>
</g>
<g>
</g>
<g>
</g>
<g>
</g>
<g>
</g>
<g>
</g>
<g>
</g>
<g>
</g>
<g>
</g>
<g>
</g>
<g>
</g>
<g>
</g>
<g>
</g>
<g>
</g>
<g>
</g>
<g>
</g>
</svg>
